<?xml version="1.0" standalone="no"?>
<!DOCTYPE svg PUBLIC "-//W3C//DTD SVG 20010904//EN"
 "http://www.w3.org/TR/2001/REC-SVG-20010904/DTD/svg10.dtd">
<svg version="1.0" xmlns="http://www.w3.org/2000/svg"
 width="735.000000pt" height="491.000000pt" viewBox="0 0 735.000000 491.000000"
 preserveAspectRatio="xMidYMid meet">

<g transform="translate(0.000000,491.000000) scale(0.100000,-0.100000)"
fill="#000000" stroke="none">
<path d="M2973 4355 c-48 -13 -98 -40 -147 -79 -17 -14 7 -43 379 -453 219
-241 414 -455 435 -476 l37 -38 279 307 c153 170 348 384 433 477 144 158 152
169 135 183 -123 97 -263 118 -393 58 -67 -30 -89 -51 -289 -269 -86 -93 -161
-170 -167 -170 -7 0 -67 61 -135 135 -210 231 -258 276 -322 305 -73 33 -172
41 -245 20z"/>
<path d="M2580 4060 c-15 -5 -18 -8 -8 -9 9 -1 25 -4 35 -7 15 -5 15 -4 3 5
-12 9 -11 11 8 11 13 0 20 -4 17 -10 -3 -6 1 -7 9 -4 9 3 13 10 10 15 -6 11
-39 10 -74 -1z"/>
<path d="M2670 4060 c0 -5 19 -10 42 -10 49 0 47 5 -4 14 -24 4 -38 3 -38 -4z"/>
<path d="M4665 4060 c-3 -5 3 -10 14 -10 11 0 23 5 26 10 3 6 -3 10 -14 10
-11 0 -23 -4 -26 -10z"/>
<path d="M4728 4063 c7 -3 16 -2 19 1 4 3 -2 6 -13 5 -11 0 -14 -3 -6 -6z"/>
<path d="M2528 4043 c7 -3 16 -2 19 1 4 3 -2 6 -13 5 -11 0 -14 -3 -6 -6z"/>
<path d="M2755 4040 c-3 -6 1 -7 10 -4 8 4 27 -1 43 -10 l27 -17 -24 20 c-25
23 -46 27 -56 11z"/>
<path d="M4728 4043 c6 -2 18 -2 25 0 6 3 1 5 -13 5 -14 0 -19 -2 -12 -5z"/>
<path d="M4815 4040 c11 -5 27 -9 35 -9 9 0 8 4 -5 9 -11 5 -27 9 -35 9 -9 0
-8 -4 5 -9z"/>
<path d="M2658 4033 c7 -3 16 -2 19 1 4 3 -2 6 -13 5 -11 0 -14 -3 -6 -6z"/>
<path d="M4538 4033 c7 -3 16 -2 19 1 4 3 -2 6 -13 5 -11 0 -14 -3 -6 -6z"/>
<path d="M2445 4004 c-16 -8 -22 -12 -12 -9 23 6 44 -5 28 -15 -9 -5 -7 -10 4
-20 13 -11 15 -10 9 4 -4 12 0 16 15 16 21 0 27 10 14 23 -3 4 -13 1 -21 -6
-13 -10 -15 -9 -9 6 3 9 5 17 4 17 -1 -1 -15 -8 -32 -16z"/>
<path d="M4880 4013 c1 -8 72 -45 77 -39 1 1 -15 13 -37 25 -22 12 -40 19 -40
14z"/>
<path d="M2840 4006 c0 -2 7 -7 16 -10 8 -3 12 -2 9 4 -6 10 -25 14 -25 6z"/>
<path d="M4474 3998 c-4 -7 -3 -8 4 -4 20 12 13 -6 -9 -25 -21 -18 -21 -18 -1
-16 12 0 19 4 16 8 -2 4 6 10 19 14 13 4 17 8 9 12 -6 2 -10 9 -6 14 3 5 -2 9
-10 9 -8 0 -18 -5 -22 -12z"/>
<path d="M4530 3994 c0 -8 5 -12 10 -9 6 3 10 10 10 16 0 5 -4 9 -10 9 -5 0
-10 -7 -10 -16z"/>
<path d="M2885 3990 c4 -6 1 -18 -7 -27 -8 -10 -8 -14 -1 -10 7 4 13 0 16 -10
2 -10 3 -8 2 5 -2 17 1 22 13 17 12 -5 12 -1 -3 15 -19 21 -30 27 -20 10z"/>
<path d="M4434 3968 l-19 -23 23 19 c12 11 22 21 22 23 0 8 -8 2 -26 -19z"/>
<path d="M4890 3981 c0 -8 50 -34 56 -29 1 2 -11 11 -27 20 -16 9 -29 14 -29
9z"/>
<path d="M2387 3974 c-11 -11 -8 -26 3 -19 6 3 10 0 10 -7 0 -10 2 -11 8 0 5
7 17 10 28 7 17 -6 18 -6 1 5 -9 6 -21 9 -26 5 -5 -3 -11 0 -13 6 -2 5 -7 7
-11 3z"/>
<path d="M2810 3970 c-8 -5 -12 -11 -10 -14 3 -2 14 2 24 10 22 15 10 19 -14
4z"/>
<path d="M4880 3953 c0 -7 -7 -10 -15 -7 -8 4 -15 1 -15 -6 0 -7 8 -10 20 -7
11 3 20 0 20 -6 0 -6 3 -8 6 -4 3 3 1 14 -5 24 -6 10 -11 13 -11 6z"/>
<path d="M2925 3941 c-3 -6 4 -16 17 -21 22 -10 21 -10 -4 -5 -30 6 -39 -9
-12 -19 24 -9 31 -7 37 8 7 18 -28 52 -38 37z"/>
<path d="M2424 3929 c-4 -8 -3 -9 4 -5 7 4 17 4 23 0 8 -4 7 -9 -2 -15 -7 -4
-10 -11 -6 -16 9 -9 28 17 24 32 -5 15 -34 18 -43 4z"/>
<path d="M4906 3913 l-20 -27 27 20 c14 10 27 22 27 27 0 15 -16 6 -34 -20z"/>
<path d="M4365 3900 c-8 -13 3 -30 18 -29 9 0 9 2 0 6 -7 2 -13 9 -13 15 0 6
7 7 16 4 8 -3 12 -2 9 4 -8 13 -22 13 -30 0z"/>
<path d="M2467 3885 c-4 -8 -3 -16 1 -19 4 -3 9 4 9 15 2 23 -3 25 -10 4z"/>
<path d="M2880 3892 c0 -12 19 -26 26 -19 2 2 -2 10 -11 17 -9 8 -15 8 -15 2z"/>
<path d="M2950 3883 l-25 -14 33 6 c24 5 34 3 38 -9 4 -9 16 -21 28 -28 14 -7
10 1 -13 26 -19 20 -35 36 -35 35 -1 -1 -12 -8 -26 -16z"/>
<path d="M4340 3871 c0 -6 -20 -29 -45 -52 -25 -23 -45 -46 -45 -53 0 -6 14 6
31 27 17 20 37 37 44 37 19 0 39 37 25 45 -5 3 -10 2 -10 -4z"/>
<path d="M2506 3849 c9 -10 24 -17 34 -16 29 2 7 32 -24 32 -23 1 -24 0 -10
-16z m34 1 c0 -5 -4 -10 -10 -10 -5 0 -10 5 -10 10 0 6 5 10 10 10 6 0 10 -4
10 -10z"/>
<path d="M2970 3857 c0 -8 10 -22 21 -33 15 -13 20 -14 15 -4 -3 8 -9 23 -12
33 -7 20 -24 23 -24 4z"/>
<path d="M4840 3856 c15 -15 12 -29 -4 -23 -8 3 -19 0 -24 -6 -12 -15 -12 -48
0 -41 5 4 7 9 4 12 -3 3 4 10 17 17 12 6 21 19 20 29 0 11 4 15 14 12 8 -3 11
-2 8 3 -3 6 -14 9 -25 8 -13 -1 -16 -5 -10 -11z"/>
<path d="M4370 3840 c0 -5 5 -10 11 -10 5 0 7 5 4 10 -3 6 -8 10 -11 10 -2 0
-4 -4 -4 -10z"/>
<path d="M2525 3802 c16 -17 32 -29 37 -26 12 8 10 14 -4 12 -8 -2 -12 5 -10
17 2 11 1 17 -3 13 -4 -4 -17 -2 -29 4 -16 9 -14 4 9 -20z"/>
<path d="M4415 3821 c-3 -5 -1 -12 5 -16 5 -3 10 1 10 9 0 18 -6 21 -15 7z"/>
<path d="M3026 3811 c-3 -5 3 -11 14 -14 11 -3 23 0 27 5 3 7 1 8 -5 4 -7 -4
-12 -2 -12 3 0 13 -17 14 -24 2z"/>
<path d="M4313 3803 c-10 -10 -14 -15 -8 -11 11 7 17 8 40 8 8 0 15 5 15 10 0
16 -26 12 -47 -7z"/>
<path d="M4750 3780 c-13 -8 -13 -10 2 -10 9 0 18 -6 21 -12 3 -7 4 -3 4 10
-1 24 -5 26 -27 12z"/>
<path d="M2622 3764 c-11 -12 -11 -18 -2 -29 7 -8 10 -22 6 -30 -3 -10 -2 -13
5 -10 5 4 16 2 23 -4 10 -8 16 -8 25 3 10 12 9 13 -8 9 -16 -4 -23 1 -31 21
-5 14 -7 33 -4 41 8 19 3 19 -14 -1z"/>
<path d="M3080 3772 c0 -12 19 -26 26 -19 2 2 -2 10 -11 17 -9 8 -15 8 -15 2z"/>
<path d="M4311 3764 c0 -11 3 -14 6 -6 3 7 2 16 -1 19 -3 4 -6 -2 -5 -13z"/>
<path d="M4280 3762 c0 -7 -7 -12 -15 -12 -8 0 -15 -5 -15 -11 0 -6 7 -8 16
-5 9 4 23 1 30 -5 18 -15 17 1 -1 25 -8 11 -15 14 -15 8z"/>
<path d="M3059 3743 c12 -24 31 -39 31 -25 0 5 -10 17 -21 28 -22 19 -22 19
-10 -3z"/>
<path d="M4715 3740 c-14 -16 -16 -23 -7 -32 9 -9 12 -7 12 10 0 12 5 22 11
22 6 0 8 -7 5 -16 -6 -14 -4 -15 9 -4 9 7 12 16 8 19 -4 4 -11 10 -14 14 -3 4
-14 -2 -24 -13z"/>
<path d="M2585 3740 c3 -5 8 -10 11 -10 2 0 4 5 4 10 0 6 -5 10 -11 10 -5 0
-7 -4 -4 -10z"/>
<path d="M4215 3730 c-18 -20 -18 -21 -1 -14 16 6 17 4 7 -17 -11 -21 -10 -22
2 -7 8 10 17 15 20 11 4 -3 7 -1 7 5 0 7 -5 12 -11 12 -6 0 -9 7 -5 15 7 20 3
19 -19 -5z"/>
<path d="M2650 3720 c0 -5 5 -10 10 -10 6 0 10 5 10 10 0 6 -4 10 -10 10 -5 0
-10 -4 -10 -10z"/>
<path d="M4677 3690 c19 -22 26 -21 17 4 -3 9 -12 16 -20 16 -11 0 -10 -4 3
-20z"/>
<path d="M2698 3676 c-3 -14 -1 -26 4 -26 14 0 22 30 11 41 -7 7 -12 2 -15
-15z"/>
<path d="M4185 3690 c-3 -5 -1 -10 4 -10 6 0 11 5 11 10 0 6 -2 10 -4 10 -3 0
-8 -4 -11 -10z"/>
<path d="M3150 3675 c-11 -13 -15 -13 -21 -3 -11 16 -10 0 0 -27 7 -18 9 -18
23 9 11 21 17 25 23 16 5 -9 4 -15 -3 -18 -7 -2 -12 -8 -12 -14 0 -6 10 -3 22
8 21 19 21 19 14 -1 -4 -11 -4 -16 0 -12 4 4 14 1 23 -6 14 -11 15 -10 1 8
-17 24 -48 55 -53 55 -3 0 -10 -7 -17 -15z"/>
<path d="M4647 3679 c7 -7 15 -10 18 -7 3 3 -2 9 -12 12 -14 6 -15 5 -6 -5z"/>
<path d="M4150 3665 c-7 -9 -11 -17 -9 -20 3 -2 10 5 17 15 14 24 10 26 -8 5z"/>
<path d="M2660 3660 c0 -5 5 -10 11 -10 5 0 7 5 4 10 -3 6 -8 10 -11 10 -2 0
-4 -4 -4 -10z"/>
<path d="M4190 3651 c0 -12 39 -25 47 -17 4 3 -1 6 -10 6 -9 0 -17 5 -17 10 0
6 -4 10 -10 10 -5 0 -10 -4 -10 -9z"/>
<path d="M4637 3637 c-3 -7 -2 -19 3 -26 5 -10 8 -9 13 2 3 7 2 19 -3 26 -5
10 -8 9 -13 -2z"/>
<path d="M2695 3620 c10 -11 20 -20 23 -20 3 0 -3 9 -13 20 -10 11 -20 20 -23
20 -3 0 3 -9 13 -20z"/>
<path d="M4592 3608 c-16 -16 -15 -25 2 -31 8 -3 20 2 28 11 12 15 11 16 -4 3
-16 -12 -18 -11 -18 2 0 8 6 18 13 20 6 3 7 6 2 6 -6 1 -16 -4 -23 -11z"/>
<path d="M3240 3600 c0 -5 5 -10 11 -10 5 0 7 5 4 10 -3 6 -8 10 -11 10 -2 0
-4 -4 -4 -10z"/>
<path d="M3210 3590 c0 -5 5 -10 10 -10 6 0 10 5 10 10 0 6 -4 10 -10 10 -5 0
-10 -4 -10 -10z"/>
<path d="M2740 3585 c0 -15 18 -40 24 -34 3 3 -1 14 -9 25 -8 10 -14 15 -15 9z"/>
<path d="M4135 3569 c-4 -6 -14 -8 -22 -5 -9 4 -11 2 -7 -6 5 -7 2 -9 -9 -5
-9 3 -18 -1 -21 -10 -10 -26 0 -25 40 2 47 32 50 35 36 35 -6 0 -14 -5 -17
-11z"/>
<path d="M2782 3549 c-8 -12 -9 -18 -3 -15 5 4 14 -2 20 -11 6 -10 11 -13 11
-6 0 6 -4 14 -10 18 -5 3 -7 12 -3 20 8 22 0 18 -15 -6z"/>
<path d="M3254 3558 c10 -6 22 -6 26 -2 5 5 -3 10 -18 11 -22 1 -24 0 -8 -9z"/>
<path d="M4566 3532 l-19 -27 24 22 c12 12 21 24 18 27 -2 2 -13 -8 -23 -22z"/>
<path d="M2828 3543 c6 -2 18 -2 25 0 6 3 1 5 -13 5 -14 0 -19 -2 -12 -5z"/>
<path d="M4491 3541 c-7 -5 -12 -14 -10 -20 3 -7 11 -3 21 9 18 21 13 26 -11
11z"/>
<path d="M4540 3540 c-8 -5 -12 -12 -9 -15 4 -3 12 1 19 10 14 17 11 19 -10 5z"/>
<path d="M3291 3513 c-10 -24 -10 -26 2 -10 19 23 27 22 24 -5 -1 -17 3 -23
18 -23 11 -1 27 -5 35 -10 13 -7 13 -6 2 7 -8 10 -21 14 -35 10 -19 -5 -20 -3
-10 10 11 12 10 18 -5 32 -18 15 -19 15 -31 -11z"/>
<path d="M3992 3487 c-29 -29 -52 -57 -52 -61 0 -5 9 1 20 14 11 13 23 20 27
17 3 -4 -4 -18 -17 -32 -13 -14 -18 -25 -12 -25 19 0 43 45 36 65 -6 14 -4 16
7 10 8 -4 11 -5 7 -1 -3 4 1 16 10 26 12 14 19 17 29 8 14 -12 17 0 5 19 -6 9
-24 -3 -60 -40z"/>
<path d="M2830 3520 c0 -5 5 -10 11 -10 5 0 7 5 4 10 -3 6 -8 10 -11 10 -2 0
-4 -4 -4 -10z"/>
<path d="M2863 3495 c-3 -9 -3 -18 -1 -21 3 -3 8 4 11 16 6 23 -1 27 -10 5z"/>
<path d="M2815 3490 c3 -5 11 -10 16 -10 6 0 7 5 4 10 -3 6 -11 10 -16 10 -6
0 -7 -4 -4 -10z"/>
<path d="M4489 3493 c-1 -5 -2 -20 -3 -35 -2 -27 -2 -27 16 -8 23 24 24 37 2
19 -15 -12 -16 -11 -10 9 4 12 5 22 2 22 -3 0 -7 -3 -7 -7z"/>
<path d="M2940 3455 c7 -9 15 -13 17 -11 7 7 -7 26 -19 26 -6 0 -6 -6 2 -15z"/>
<path d="M4461 3454 c0 -11 3 -14 6 -6 3 7 2 16 -1 19 -3 4 -6 -2 -5 -13z"/>
<path d="M2864 3448 c-4 -6 2 -19 14 -29 12 -9 22 -20 22 -24 0 -3 13 -20 28
-36 l28 -30 -2 28 c-1 15 -3 30 -4 33 -1 3 -2 9 -1 13 2 9 -24 37 -35 37 -4 0
1 -9 11 -20 10 -11 14 -20 10 -20 -5 0 -4 -5 3 -12 7 -7 12 -16 12 -22 0 -5
-18 10 -40 34 -39 42 -49 57 -32 46 4 -2 14 -1 22 5 12 7 10 9 -7 9 -12 0 -25
-5 -29 -12z"/>
<path d="M3385 3440 c3 -5 8 -10 11 -10 2 0 4 5 4 10 0 6 -5 10 -11 10 -5 0
-7 -4 -4 -10z"/>
<path d="M4425 3440 c-3 -5 -1 -10 4 -10 6 0 11 5 11 10 0 6 -2 10 -4 10 -3 0
-8 -4 -11 -10z"/>
<path d="M3366 3413 c-6 -14 -5 -15 5 -6 7 7 10 15 7 18 -3 3 -9 -2 -12 -12z"/>
<path d="M3400 3415 c-8 -9 -8 -15 -2 -15 12 0 26 19 19 26 -2 2 -10 -2 -17
-11z"/>
<path d="M4334 3417 c-13 -16 -14 -49 -1 -44 6 2 12 15 14 30 4 30 3 32 -13
14z"/>
<path d="M4457 3423 c-4 -3 -7 -11 -7 -17 0 -6 5 -5 12 2 6 6 9 14 7 17 -3 3
-9 2 -12 -2z"/>
<path d="M3912 3397 c-8 -9 -8 -17 0 -27 8 -13 9 -12 5 1 -3 9 0 22 6 28 6 6
8 11 5 11 -3 0 -10 -6 -16 -13z"/>
<path d="M4406 3396 c4 -10 0 -14 -13 -12 -10 2 -12 1 -5 -1 8 -3 11 -10 9
-17 -3 -7 1 -13 8 -13 7 0 11 6 8 14 -3 8 0 12 8 10 8 -2 11 -2 7 0 -4 2 -4
11 -1 19 3 8 -1 14 -11 14 -9 0 -13 -6 -10 -14z"/>
<path d="M3455 3360 c-3 -5 -3 -15 1 -21 3 -6 0 -16 -7 -21 -12 -8 -11 -9 1
-5 8 2 15 15 15 30 1 29 -1 32 -10 17z"/>
<path d="M3870 3355 c-11 -13 -10 -14 4 -9 12 5 15 2 10 -10 -3 -9 -2 -16 4
-16 13 0 21 21 14 38 -6 16 -17 15 -32 -3z"/>
<path d="M4355 3360 c-3 -5 1 -10 9 -10 9 0 16 5 16 10 0 6 -4 10 -9 10 -6 0
-13 -4 -16 -10z"/>
<path d="M3484 3332 c0 -10 8 -18 18 -18 16 0 16 2 1 18 -9 10 -17 18 -17 18
-1 0 -2 -8 -2 -18z"/>
<path d="M4327 3320 c3 -11 9 -17 14 -15 10 7 1 35 -11 35 -5 0 -6 -9 -3 -20z"/>
<path d="M4366 3324 c-9 -25 -2 -26 17 -4 13 16 14 20 3 20 -8 0 -17 -7 -20
-16z"/>
<path d="M3850 3320 c0 -5 5 -10 11 -10 5 0 7 5 4 10 -3 6 -8 10 -11 10 -2 0
-4 -4 -4 -10z"/>
<path d="M2986 3301 c8 -8 43 -8 38 0 -2 4 -13 7 -24 6 -10 -1 -17 -3 -14 -6z"/>
<path d="M3523 3272 c-1 -22 0 -24 9 -8 6 10 6 22 2 26 -5 5 -10 -3 -11 -18z"/>
<path d="M3800 3275 c-13 -14 -21 -27 -18 -30 2 -3 14 9 27 25 26 37 23 39 -9
5z"/>
<path d="M4326 3274 c-5 -14 -4 -15 9 -4 17 14 19 20 6 20 -5 0 -12 -7 -15
-16z"/>
<path d="M3810 3251 c0 -5 7 -11 14 -14 10 -4 13 -1 9 9 -6 15 -23 19 -23 5z"/>
<path d="M3524 3213 c1 -17 5 -35 9 -40 5 -4 5 0 1 10 -4 12 -2 16 7 14 8 -2
11 -2 7 0 -14 8 -8 25 7 20 8 -4 17 -1 21 5 4 6 3 8 -4 4 -5 -3 -13 0 -15 6
-4 10 -8 10 -15 -1 -8 -11 -10 -11 -14 0 -3 8 -5 0 -4 -18z"/>
<path d="M3800 3195 c21 -22 25 -24 33 -9 6 10 5 20 -3 27 -8 9 -10 8 -5 -5 4
-11 2 -18 -4 -18 -7 0 -14 7 -17 15 -4 8 -11 15 -17 15 -6 0 0 -11 13 -25z"/>
<path d="M3000 3185 c-13 -14 -22 -27 -19 -29 2 -2 14 10 27 25 29 36 24 38
-8 4z"/>
<path d="M4336 3151 c12 -35 19 -40 32 -25 4 4 1 3 -7 -1 -11 -6 -13 -4 -8 8
3 9 2 19 -4 23 -6 3 -8 12 -6 18 3 7 0 13 -7 13 -10 0 -10 -8 0 -36z"/>
<path d="M3240 2683 l-433 -476 29 -24 c89 -72 222 -100 328 -69 102 30 135
59 387 336 62 69 119 126 125 128 7 2 18 -5 26 -16 16 -23 173 -195 278 -306
86 -90 126 -118 200 -140 104 -31 213 -13 308 51 28 19 52 37 52 39 0 2 -116
131 -257 286 -141 156 -335 370 -431 476 -97 105 -176 192 -177 192 -1 0 -197
-214 -435 -477z"/>
<path d="M3453 3133 c0 -6 7 -8 16 -5 14 5 14 3 2 -11 -7 -9 -18 -14 -24 -10
-6 4 -7 1 -2 -6 5 -9 13 -7 31 10 30 28 30 37 1 35 -13 0 -24 -6 -24 -13z"/>
<path d="M3892 3121 c13 -14 24 -28 25 -30 1 -2 1 10 0 25 -2 22 -8 29 -25 30
l-23 1 23 -26z m18 9 c0 -5 -2 -10 -4 -10 -3 0 -8 5 -11 10 -3 6 -1 10 4 10 6
0 11 -4 11 -10z"/>
<path d="M3872 3110 c7 -11 17 -20 22 -20 5 0 1 9 -9 20 -10 11 -20 20 -22 20
-2 0 2 -9 9 -20z"/>
<path d="M4409 3118 c11 -15 11 -21 0 -35 -12 -17 -12 -17 6 0 19 17 19 17 0
35 -18 16 -18 16 -6 0z"/>
<path d="M2929 3101 c7 -5 11 -13 8 -18 -3 -5 -1 -10 6 -10 22 0 14 33 -8 35
-14 1 -16 -1 -6 -7z"/>
<path d="M4320 3080 c0 -5 5 -10 11 -10 5 0 7 5 4 10 -3 6 -8 10 -11 10 -2 0
-4 -4 -4 -10z"/>
<path d="M3387 3048 c20 -22 24 -23 16 -1 -4 11 -3 14 5 9 7 -4 12 -3 12 2 0
6 -11 9 -24 8 -23 -1 -23 -2 -9 -18z"/>
<path d="M3930 3059 c0 -5 5 -7 10 -4 6 3 10 8 10 11 0 2 -4 4 -10 4 -5 0 -10
-5 -10 -11z"/>
<path d="M3960 3060 c0 -5 5 -10 10 -10 6 0 10 5 10 10 0 6 -4 10 -10 10 -5 0
-10 -4 -10 -10z"/>
<path d="M4450 3055 c0 -8 4 -15 10 -15 5 0 7 7 4 15 -4 8 -8 15 -10 15 -2 0
-4 -7 -4 -15z"/>
<path d="M2860 3035 c-9 -10 -9 -15 -1 -15 6 0 11 -5 11 -11 0 -6 -7 -8 -16
-5 -9 3 -12 2 -9 -5 12 -18 30 -3 30 24 1 32 1 31 -15 12z"/>
<path d="M3370 3032 c6 -13 14 -21 18 -18 3 4 -2 14 -12 24 -18 16 -18 16 -6
-6z"/>
<path d="M3955 3024 c9 -9 19 -13 23 -10 3 4 0 11 -8 16 -24 15 -33 11 -15 -6z"/>
<path d="M4490 3016 c0 -2 8 -10 18 -17 15 -13 16 -12 3 4 -13 16 -21 21 -21
13z"/>
<path d="M3980 2996 c0 -2 8 -10 18 -17 15 -13 16 -12 3 4 -13 16 -21 21 -21
13z"/>
<path d="M4486 2987 c3 -10 9 -15 12 -12 3 3 0 11 -7 18 -10 9 -11 8 -5 -6z"/>
<path d="M2813 2970 c-11 -16 -10 -18 1 -14 15 6 30 34 18 34 -4 0 -13 -9 -19
-20z"/>
<path d="M4035 2980 c-7 -12 2 -12 30 0 19 8 19 9 -2 9 -12 1 -25 -3 -28 -9z"/>
<path d="M3290 2959 c-7 -11 -9 -23 -6 -27 3 -3 6 0 6 6 0 6 7 18 16 26 8 9
11 16 5 16 -6 0 -15 -9 -21 -21z"/>
<path d="M4525 2970 c3 -5 11 -10 16 -10 6 0 7 5 4 10 -3 6 -11 10 -16 10 -6
0 -7 -4 -4 -10z"/>
<path d="M2850 2960 c0 -5 5 -10 10 -10 6 0 10 5 10 10 0 6 -4 10 -10 10 -5 0
-10 -4 -10 -10z"/>
<path d="M4030 2942 c6 -13 14 -21 18 -18 3 4 -2 14 -12 24 -18 16 -18 16 -6
-6z"/>
<path d="M4059 2946 c6 -7 9 -20 6 -28 -3 -8 2 -21 12 -29 16 -13 17 -12 5 3
-8 9 -11 21 -8 27 8 12 -3 41 -16 41 -7 0 -6 -5 1 -14z"/>
<path d="M4515 2940 c3 -5 8 -10 11 -10 2 0 4 5 4 10 0 6 -5 10 -11 10 -5 0
-7 -4 -4 -10z"/>
<path d="M4550 2941 c0 -10 29 -36 34 -30 1 2 -6 12 -16 22 -10 9 -18 13 -18
8z"/>
<path d="M2773 2934 c3 -3 -9 -19 -26 -35 -18 -15 -27 -29 -21 -29 6 0 20 11
32 25 14 15 28 23 35 18 8 -4 7 -1 -2 10 -7 9 -16 17 -19 17 -3 0 -3 -3 1 -6z"/>
<path d="M2815 2930 c-3 -5 -1 -10 4 -10 6 0 11 5 11 10 0 6 -2 10 -4 10 -3 0
-8 -4 -11 -10z"/>
<path d="M3279 2903 c-13 -16 -12 -17 4 -4 16 13 21 21 13 21 -2 0 -10 -8 -17
-17z"/>
<path d="M4508 2913 c7 -3 16 -2 19 1 4 3 -2 6 -13 5 -11 0 -14 -3 -6 -6z"/>
<path d="M3212 2906 c2 0 13 -10 25 -20 21 -18 22 -18 21 0 -1 12 -10 20 -26
20 -13 1 -22 1 -20 0z"/>
<path d="M2780 2890 c0 -5 -7 -10 -15 -10 -8 0 -15 -4 -15 -10 0 -13 11 -12
33 4 19 15 22 26 7 26 -5 0 -10 -4 -10 -10z"/>
<path d="M4122 2880 c7 -11 16 -20 20 -20 5 0 8 -9 8 -21 0 -18 -2 -18 -26 8
l-26 28 21 -32 c26 -39 55 -36 40 4 -9 24 -32 53 -43 53 -4 0 -1 -9 6 -20z"/>
<path d="M4596 2886 c3 -9 11 -16 16 -16 13 0 5 23 -10 28 -7 2 -10 -2 -6 -12z"/>
<path d="M3206 2855 c2 -26 -3 -37 -22 -50 -13 -8 -24 -21 -24 -28 0 -6 19 8
42 32 25 27 37 46 30 49 -7 2 -10 7 -7 12 3 4 -1 10 -9 13 -10 4 -12 -4 -10
-28z"/>
<path d="M4560 2870 c0 -5 5 -10 11 -10 5 0 7 5 4 10 -3 6 -8 10 -11 10 -2 0
-4 -4 -4 -10z"/>
<path d="M2692 2847 c-7 -8 -6 -18 5 -32 15 -19 15 -19 11 7 -3 15 0 29 6 32
8 3 8 5 0 5 -6 1 -16 -5 -22 -12z"/>
<path d="M4655 2840 c10 -11 20 -20 23 -20 3 0 -3 9 -13 20 -10 11 -20 20 -23
20 -3 0 3 -9 13 -20z"/>
<path d="M3125 2820 c-3 -5 -2 -17 3 -26 6 -11 11 -13 16 -5 4 6 2 11 -3 11
-21 0 -11 19 12 23 22 4 22 4 0 6 -12 0 -25 -3 -28 -9z"/>
<path d="M4644 2803 c-1 -16 1 -22 3 -15 4 10 8 10 19 1 11 -9 14 -8 14 2 0
10 3 10 12 1 8 -8 8 -15 -3 -29 -11 -14 -9 -14 10 2 24 20 24 20 17 0 -4 -11
-4 -16 0 -12 4 4 14 1 23 -6 14 -11 15 -10 1 8 -27 37 -50 56 -61 50 -6 -4
-16 0 -22 9 -10 14 -12 12 -13 -11z"/>
<path d="M4180 2812 c0 -5 7 -13 16 -16 10 -4 14 -1 12 6 -5 15 -28 23 -28 10z"/>
<path d="M4229 2793 c-6 -33 -3 -61 5 -56 5 4 7 -1 2 -12 -5 -15 -4 -16 8 -6
10 8 16 9 21 1 3 -5 14 -10 23 -10 11 1 6 7 -13 17 -37 20 -46 33 -39 56 3 9
3 17 0 17 -3 0 -7 -3 -7 -7z"/>
<path d="M2611 2758 c-13 -21 -13 -22 2 -9 19 15 23 1 5 -17 -9 -9 -9 -12 -1
-12 7 0 15 9 18 20 3 11 14 20 23 20 14 0 15 2 2 10 -9 6 -17 5 -21 -2 -5 -7
-8 -7 -10 1 -2 6 -10 1 -18 -11z"/>
<path d="M3047 2729 c-3 -13 -2 -30 4 -38 8 -12 8 -10 3 8 -5 20 -3 23 11 17
16 -6 16 -4 4 11 -7 10 -14 19 -15 21 -1 1 -4 -7 -7 -19z"/>
<path d="M3080 2742 c0 -6 5 -14 10 -17 8 -5 7 -11 -1 -21 -15 -18 -2 -18 16
0 12 12 11 16 -5 31 -11 10 -20 13 -20 7z"/>
<path d="M3115 2740 c4 -6 11 -8 16 -5 14 9 11 15 -7 15 -8 0 -12 -5 -9 -10z"/>
<path d="M2580 2719 c0 -5 5 -7 10 -4 6 3 10 8 10 11 0 2 -4 4 -10 4 -5 0 -10
-5 -10 -11z"/>
<path d="M4730 2712 c0 -5 18 -18 40 -30 22 -11 40 -17 40 -11 0 5 -7 12 -15
15 -8 4 -15 12 -15 20 0 8 -5 14 -11 14 -5 0 -7 -4 -4 -10 3 -5 1 -10 -4 -10
-6 0 -11 5 -11 10 0 6 -4 10 -10 10 -5 0 -10 -4 -10 -8z"/>
<path d="M2567 2694 c3 -8 2 -14 -3 -12 -5 2 -10 0 -11 -4 -3 -9 1 -10 22 -2
19 8 19 20 1 27 -10 4 -13 1 -9 -9z"/>
<path d="M4260 2690 c0 -5 5 -10 11 -10 5 0 7 5 4 10 -3 6 -8 10 -11 10 -2 0
-4 -4 -4 -10z"/>
<path d="M4295 2680 c3 -5 8 -10 11 -10 2 0 4 5 4 10 0 6 -5 10 -11 10 -5 0
-7 -4 -4 -10z"/>
<path d="M3055 2660 c-10 -11 -16 -22 -14 -24 2 -2 12 7 22 20 22 29 17 32 -8
4z"/>
<path d="M4311 2635 c19 -22 46 -53 60 -70 24 -30 59 -45 59 -25 0 5 -9 10
-20 10 -11 0 -20 3 -20 8 0 9 -57 70 -90 97 -14 11 -9 2 11 -20z"/>
<path d="M2504 2638 l-19 -23 23 19 c21 18 27 26 19 26 -2 0 -12 -10 -23 -22z"/>
<path d="M4828 2648 c8 -8 9 -15 1 -25 -8 -9 -8 -13 0 -13 6 0 11 5 11 11 0 5
5 7 10 4 8 -5 7 -11 -1 -21 -9 -12 -9 -13 2 -9 17 6 87 -61 75 -72 -4 -4 -11
-1 -17 7 -8 13 -10 13 -19 0 -5 -8 -5 -19 -1 -23 9 -9 51 8 51 21 -1 4 -23 32
-50 62 -28 30 -50 58 -50 63 0 4 -5 7 -12 7 -9 0 -9 -3 0 -12z"/>
<path d="M2980 2639 c0 -5 5 -7 10 -4 6 3 10 8 10 11 0 2 -4 4 -10 4 -5 0 -10
-5 -10 -11z"/>
<path d="M4350 2641 c0 -5 5 -13 10 -16 6 -3 10 -2 10 4 0 5 -4 13 -10 16 -5
3 -10 2 -10 -4z"/>
<path d="M4805 2629 c-4 -6 -5 -12 -2 -15 2 -3 7 2 10 11 7 17 1 20 -8 4z"/>
<path d="M3005 2619 c-11 -17 1 -21 15 -4 8 9 8 15 2 15 -6 0 -14 -5 -17 -11z"/>
<path d="M2507 2613 c-12 -12 -7 -22 8 -17 8 4 15 10 15 15 0 11 -14 12 -23 2z"/>
<path d="M2464 2599 c-3 -6 -1 -16 5 -22 9 -9 10 -7 5 7 -6 15 -4 17 6 11 9
-5 11 -4 6 3 -9 15 -13 15 -22 1z"/>
<path d="M4376 2601 c-3 -5 1 -12 10 -15 22 -8 25 -4 9 11 -8 7 -16 9 -19 4z"/>
<path d="M2950 2591 c0 -6 5 -11 11 -11 6 0 8 -7 5 -17 -6 -15 -4 -15 14 2 21
19 27 30 10 20 -6 -4 -17 -1 -25 5 -11 9 -15 9 -15 1z"/>
<path d="M2432 2557 c-8 -9 -8 -17 0 -27 8 -13 9 -12 5 1 -3 9 0 22 6 28 6 6
8 11 5 11 -3 0 -10 -6 -16 -13z"/>
<path d="M2919 2563 c-10 -2 -14 -14 -13 -33 1 -18 -5 -35 -17 -46 -21 -18
-27 -6 -7 14 9 9 5 9 -15 0 -31 -15 -34 -24 -9 -30 25 -7 57 22 59 52 1 13 10
30 19 37 18 13 13 15 -17 6z"/>
<path d="M2460 2551 c0 -5 5 -13 10 -16 6 -3 10 -2 10 4 0 5 -4 13 -10 16 -5
3 -10 2 -10 -4z"/>
<path d="M2881 2534 c0 -11 3 -14 6 -6 3 7 2 16 -1 19 -3 4 -6 -2 -5 -13z"/>
<path d="M2392 2517 c-15 -17 -6 -28 16 -20 10 4 14 3 10 -2 -10 -10 30 -45
51 -45 10 0 7 5 -9 13 -14 8 -24 18 -24 23 1 5 -6 17 -16 27 -14 15 -19 15
-28 4z"/>
<path d="M2450 2509 c0 -5 5 -7 10 -4 6 3 10 8 10 11 0 2 -4 4 -10 4 -5 0 -10
-5 -10 -11z"/>
<path d="M4425 2511 c-3 -5 -2 -12 3 -15 5 -3 9 1 9 9 0 17 -3 19 -12 6z"/>
<path d="M4953 2505 c0 -8 4 -12 9 -9 5 3 6 10 3 15 -9 13 -12 11 -12 -6z"/>
<path d="M4453 2495 c0 -8 4 -12 9 -9 5 3 6 10 3 15 -9 13 -12 11 -12 -6z"/>
<path d="M4810 2500 c8 -5 25 -10 38 -10 12 0 22 -5 22 -12 0 -6 3 -8 7 -4 12
11 -27 36 -56 36 -21 0 -23 -2 -11 -10z"/>
<path d="M4510 2490 c0 -5 -10 -10 -22 -10 -21 0 -21 0 -2 -15 25 -19 35 -19
28 0 -4 9 0 15 9 15 9 0 19 5 22 10 3 6 -3 10 -14 10 -12 0 -21 -4 -21 -10z"/>
<path d="M4903 2493 c-17 -6 -16 -20 1 -26 10 -4 13 -1 9 9 -4 10 0 12 13 7
12 -4 15 -3 10 5 -8 13 -13 14 -33 5z"/>
<path d="M2827 2459 c7 -7 15 -10 18 -7 3 3 -2 9 -12 12 -14 6 -15 5 -6 -5z"/>
<path d="M4535 2460 c-3 -5 -2 -10 4 -10 5 0 13 5 16 10 3 6 2 10 -4 10 -5 0
-13 -4 -16 -10z"/>
<path d="M2800 2451 c0 -6 4 -13 10 -16 6 -3 7 1 4 9 -7 18 -14 21 -14 7z"/>
<path d="M4826 2444 c-8 -22 1 -31 16 -16 9 9 9 15 1 23 -7 7 -12 5 -17 -7z"/>
<path d="M2560 2419 c-14 -4 -18 -8 -10 -8 8 -1 26 -4 40 -6 22 -5 23 -4 5 5
-15 8 -11 9 20 4 77 -12 112 -13 112 -1 0 14 -126 18 -167 6z"/>
<path d="M2755 2420 c-3 -5 -2 -10 4 -10 5 0 13 5 16 10 3 6 2 10 -4 10 -5 0
-13 -4 -16 -10z"/>
<path d="M4617 2416 c20 -11 99 -11 130 1 14 5 -8 8 -62 8 -58 0 -79 -3 -68
-9z"/>
<path d="M4788 2413 c7 -3 16 -2 19 1 4 3 -2 6 -13 5 -11 0 -14 -3 -6 -6z"/>
<path d="M454 1478 c-42 -20 -44 -43 -44 -418 l0 -360 26 0 c67 0 146 70 166
148 l10 42 195 0 c233 0 271 8 328 65 52 51 65 99 65 235 0 126 -13 178 -56
228 -57 67 -86 72 -398 71 -165 0 -279 -4 -292 -11z m526 -208 c16 -16 20 -33
20 -94 0 -53 -4 -79 -15 -90 -22 -21 -81 -27 -235 -24 l-135 3 -3 113 -3 112
176 0 c162 0 177 -2 195 -20z"/>
<path d="M1337 1470 l-27 -21 0 -375 0 -374 22 0 c40 0 109 41 135 81 17 25
27 57 30 98 l6 61 112 0 112 0 66 -94 c89 -126 111 -141 209 -141 42 0 79 3
83 6 3 4 -28 55 -70 114 -41 60 -75 111 -75 114 0 3 22 18 49 33 38 21 54 38
75 79 23 47 26 65 26 153 0 155 -23 211 -103 257 -41 24 -47 24 -332 27 -284
3 -292 3 -318 -18z m536 -194 c20 -16 25 -124 5 -144 -8 -8 -66 -12 -195 -12
l-183 0 0 85 0 85 178 0 c131 -1 182 -4 195 -14z"/>
<path d="M2359 1481 c-51 -10 -104 -46 -131 -89 -22 -36 -23 -47 -26 -281 -3
-207 -1 -251 13 -287 20 -52 82 -111 127 -119 18 -3 141 -5 274 -3 l241 3 41
29 c77 53 82 77 82 357 0 217 -3 249 -19 285 -21 45 -67 85 -120 103 -37 12
-420 14 -482 2z m411 -211 c18 -18 20 -33 20 -180 0 -212 11 -200 -193 -200
-211 0 -197 -14 -197 205 0 155 2 175 18 184 9 6 86 11 175 11 144 0 159 -2
177 -20z"/>
<path d="M4123 1480 c-12 -5 -26 -18 -32 -29 -7 -13 -11 -146 -11 -385 l0
-366 25 0 c31 0 93 30 117 57 9 10 26 39 37 63 19 41 21 65 21 258 0 164 3
213 12 210 7 -3 64 -118 126 -256 96 -211 118 -253 138 -258 13 -3 30 -4 37
-1 8 3 53 94 102 204 107 241 142 313 154 313 6 0 11 -98 13 -227 3 -219 4
-229 26 -266 32 -51 83 -88 132 -94 l40 -6 0 369 c-1 274 -4 373 -13 385 -22
29 -55 39 -129 39 -157 0 -192 -27 -279 -220 -35 -77 -66 -140 -70 -140 -3 0
-31 58 -63 128 -70 159 -100 196 -168 217 -56 16 -179 19 -215 5z"/>
<path d="M5306 1478 c-49 -14 -112 -76 -125 -125 -6 -22 -11 -137 -11 -269 0
-225 1 -231 25 -280 14 -28 40 -59 62 -74 l37 -25 266 0 c265 0 267 0 302 24
19 13 46 40 59 59 24 35 24 37 24 303 l0 267 -30 43 c-55 78 -77 84 -340 86
-137 1 -246 -3 -269 -9z m429 -202 c18 -13 19 -28 19 -179 0 -219 11 -207
-185 -207 -91 0 -158 4 -174 12 l-25 11 0 178 c0 159 2 179 18 188 28 17 324
14 347 -3z"/>
<path d="M3153 1461 c-24 -11 -43 -23 -43 -26 0 -8 90 -116 105 -127 5 -4 13
-4 17 -2 4 3 5 -1 2 -9 -3 -8 10 -27 30 -45 19 -16 32 -34 28 -38 -4 -4 1 -4
11 -1 10 4 16 3 13 -1 -8 -13 24 -53 36 -46 6 4 8 3 5 -3 -4 -6 2 -18 12 -27
15 -13 20 -14 23 -4 3 7 5 -2 6 -19 1 -27 -14 -49 -91 -135 -51 -57 -105 -118
-122 -137 -16 -18 -29 -38 -27 -43 1 -5 -1 -7 -6 -4 -5 3 -19 -5 -31 -18 l-22
-23 26 -17 c39 -26 105 -35 153 -20 43 12 83 48 195 174 l58 65 50 -55 c28
-30 70 -76 93 -101 74 -84 150 -110 231 -79 68 26 76 11 -136 245 -113 123
-112 122 -95 148 9 13 13 27 9 32 -5 4 -3 5 3 2 10 -6 47 24 42 34 -2 2 -1 3
1 1 7 -3 51 40 51 50 0 5 -5 6 -12 2 -7 -4 -8 -3 -4 5 4 6 11 9 16 6 12 -7 91
85 83 98 -3 5 -1 7 4 4 13 -8 46 27 36 37 -5 4 -3 6 3 4 7 -2 22 8 33 22 l22
24 -52 24 c-56 26 -123 26 -155 0 -61 -50 -96 -87 -90 -97 5 -7 1 -9 -8 -5
-15 6 -21 -6 -16 -31 1 -5 -2 -7 -5 -3 -11 11 -77 -61 -69 -75 4 -7 4 -9 -1
-5 -4 4 -16 3 -26 -3 -13 -7 -19 -6 -19 1 0 6 -4 8 -10 5 -5 -3 -10 0 -10 8 0
16 -44 59 -53 52 -4 -3 -5 -2 -2 1 9 13 -17 46 -31 40 -9 -3 -12 -1 -9 4 9 14
-75 100 -97 100 -11 0 -17 4 -14 8 3 5 0 9 -7 10 -76 12 -95 11 -134 -7z m218
-68 c13 -16 12 -17 -3 -4 -10 7 -18 15 -18 17 0 8 8 3 21 -13z"/>
<path d="M6135 1468 c-16 -6 -38 -16 -48 -23 -16 -11 -16 -13 5 -37 134 -147
173 -186 181 -181 6 3 7 1 4 -4 -4 -6 3 -21 16 -35 41 -45 77 -90 77 -96 0 -4
-13 -21 -28 -38 -78 -89 -117 -138 -114 -146 1 -5 -2 -7 -7 -4 -5 3 -21 -9
-36 -26 -15 -18 -47 -54 -71 -79 l-44 -47 24 -16 c43 -28 103 -36 155 -20 46
13 91 56 219 204 l30 35 24 -23 c14 -12 28 -19 33 -15 4 5 5 2 1 -4 -7 -12 44
-74 127 -155 59 -57 157 -66 226 -21 l23 15 -43 46 c-24 26 -58 63 -75 82 -83
93 -121 129 -129 122 -4 -4 -5 -2 -2 4 8 15 -22 56 -35 48 -6 -4 -8 -2 -5 3 4
6 0 16 -8 23 -14 12 -3 28 83 116 7 8 10 19 6 25 -4 7 -3 9 3 6 13 -8 46 27
36 37 -5 4 -1 6 7 4 8 -1 14 3 12 10 -1 6 2 11 7 10 10 -3 131 126 131 140 0
18 -50 43 -98 49 -36 4 -56 0 -88 -16 -48 -25 -118 -97 -109 -111 4 -6 2 -9
-3 -8 -6 2 -35 -24 -66 -56 -49 -52 -58 -57 -69 -43 -50 64 -189 202 -219 218
-41 21 -87 23 -133 7z m606 -525 c13 -16 12 -17 -3 -4 -10 7 -18 15 -18 17 0
8 8 3 21 -13z"/>
</g>
</svg>
